<?xml version="1.0" encoding="UTF-8"?>
<svg version="1.1" xmlns="http://www.w3.org/2000/svg" width="548" height="379">
<path d="M0 0 C2.12938857 0.02991504 4.25888875 0.05265591 6.38842773 0.06860352 C11.94151376 0.12913799 17.48769368 0.28575399 23.03808594 0.46386719 C28.72235694 0.62879433 34.40776618 0.7008792 40.09375 0.78125 C51.21133613 0.95184985 62.32383972 1.22418812 73.4375 1.5625 C69.1029705 6.74389462 64.55386057 11.58646221 59.76858521 16.35166931 C58.63996026 17.4815759 58.63996026 17.4815759 57.48853481 18.63430887 C54.98056323 21.14392036 52.4690476 23.64995397 49.95751953 26.15600586 C48.15348693 27.95975625 46.34967478 29.76372715 44.54606628 31.56790161 C40.66961724 35.44457797 36.79164677 39.3197221 32.91226578 43.19346428 C27.30342242 48.79416032 21.69736165 54.39763488 16.0919634 60.00177867 C6.99620819 69.09534843 -2.10177519 78.18668549 -11.20117188 87.27661133 C-20.03730836 96.10356056 -28.87238206 104.93157133 -37.70605469 113.76098633 C-38.25664976 114.3113134 -38.80724483 114.86164047 -39.37452459 115.42864412 C-43.68090692 119.73294687 -47.9872279 124.03731098 -52.29352951 128.34169447 C-73.37987275 149.41861404 -94.47155886 170.49017946 -115.5625 191.5625 C-22.0075 192.0575 -22.0075 192.0575 73.4375 192.5625 C73.4375 249.9825 73.4375 307.4025 73.4375 366.5625 C41.7575 366.5625 10.0775 366.5625 -22.5625 366.5625 C-22.5625 334.8825 -22.5625 303.2025 -22.5625 270.5625 C-85.5925 270.5625 -148.6225 270.5625 -213.5625 270.5625 C-213.5625 192.5625 -213.5625 192.5625 -200.88208008 171.02709961 C-191.55240246 161.7172883 -191.55240246 161.7172883 -187.97309303 158.72614861 C-183.12693493 154.5882871 -178.5772826 150.18567445 -174.01872253 145.73597717 C-166.80478229 138.76023956 -159.41829707 132.00653995 -151.93702859 125.31954342 C-143.42446331 117.69146298 -135.14297811 109.82942473 -126.86932147 101.94408023 C-112.74670249 88.49188281 -98.47462328 75.2182303 -84.00572205 62.13926697 C-83.40116721 61.59240048 -82.79661238 61.04553398 -82.1737377 60.48209578 C-81.06576717 59.48074826 -79.95662381 58.48069593 -78.8459695 57.48232597 C-75.65323146 54.60038339 -72.58131562 51.62572845 -69.5625 48.5625 C-43.5625 22.5625 -43.5625 22.5625 -41.31420898 20.39624023 C-39.17560161 18.1938788 -37.28618881 16.01091085 -35.36743164 13.62915039 C-24.62709152 0.87322197 -16.17338575 -0.67570685 0 0 Z " fill="currentColor" transform="translate(225.5625,5.4375)"/>
<path d="M0 0 C63.36 0 126.72 0 192 0 C192.45375 15.55125 192.9075 31.1025 193.375 47.125 C193.57528809 51.98879395 193.77557617 56.85258789 193.98193359 61.86376953 C194.79572333 96.10345687 194.79572333 96.10345687 185.75195503 106.49168968 C181.74993862 110.65621981 177.23787451 114.12033445 172.4463501 117.33563232 C169.55109436 119.30541174 167.34281113 121.41443542 165 124 C163.3125 125.8125 163.3125 125.8125 162 127 C161.34 127 160.68 127 160 127 C159.79375 127.556875 159.5875 128.11375 159.375 128.6875 C157.85583075 131.24246647 156.03108151 132.6828842 153.71875 134.5078125 C151.0706225 136.80686865 148.87483581 139.46053884 146.61328125 142.1328125 C145.13158368 143.84770702 143.69589264 145.49565446 142 147 C141.34 147 140.68 147 140 147 C140 147.66 140 148.32 140 149 C138.33784732 150.33895632 136.67036393 151.67130142 135 153 C133.64613064 154.65002828 132.31321858 156.3174387 131 158 C127.80106781 161.37184744 124.41452143 164.41058599 120.84375 167.375 C118.8968917 169.03505745 118.8968917 169.03505745 116.93139648 171.23852539 C114.75491678 173.46219326 112.50455157 174.93823861 109.83032227 176.51733398 C103.548979 180.72862609 98.22876492 185.68955228 96.47493744 193.26920319 C94.34910272 207.22077611 95.34226845 221.69626806 95.83270264 235.74212646 C96.00808785 241.29898789 96.08455837 246.85717165 96.16992188 252.41601562 C96.35106837 263.28082038 96.64033407 274.13973938 97 285 C97.62648438 284.3503125 98.25296875 283.700625 98.8984375 283.03125 C99.71570313 282.1959375 100.53296875 281.360625 101.375 280.5 C102.18710937 279.6646875 102.99921875 278.829375 103.8359375 277.96875 C106 276 106 276 108 276 C108.37705078 275.13375 108.37705078 275.13375 108.76171875 274.25 C111.49885052 269.2765366 116.2755478 265.36352034 120.6875 261.875 C122.70095671 260.24246753 124.08458349 258.75364563 125.6875 256.75 C126.8321875 255.38875 126.8321875 255.38875 128 254 C128.66 254 129.32 254 130 254 C130 253.34 130 252.68 130 252 C131.98260426 250.31267723 133.9832342 248.64633943 136 247 C136.33 246.34 136.66 245.68 137 245 C137.66 245 138.32 245 139 245 C139 244.34 139 243.68 139 243 C140.2578125 241.765625 140.2578125 241.765625 142.125 240.25 C148.18936041 235.10776952 153.69151309 229.39410615 159.27416992 223.74169922 C161.50849516 221.48682919 163.75537908 219.24462092 166 217 C167.45161003 215.54140155 168.90208774 214.08168322 170.35247803 212.62187195 C172.56762641 210.39330586 174.78547567 208.16743548 177.00341797 205.94165039 C178.17584743 204.76414051 179.34738556 203.58574252 180.51806641 202.40649414 C182.21285184 200.69966047 183.91077549 198.99600568 185.609375 197.29296875 C186.13537292 196.76180954 186.66137085 196.23065033 187.20330811 195.68339539 C188.45003509 194.43647396 189.72242884 193.21529961 191 192 C191.33 192 191.66 192 192 192 C192 223.35 192 254.7 192 287 C128.64 287 65.28 287 0 287 C0 191 0 191 20.78125 164.1484375 C35.16663225 152.423386 35.16663225 152.423386 40.61447144 148.51345825 C52.42737736 139.88368142 63.26338398 130.0993014 73.84765625 120.01953125 C74.36203853 119.53363769 74.87642081 119.04774414 75.40639043 118.54712653 C92.77922719 102.06274624 100.67575959 86.72576659 101.65359497 62.47918701 C101.97358347 42.19882901 99.31772709 21.7852797 95 2 C94.52254648 2.4792971 94.04509296 2.95859421 93.55317116 3.45241547 C81.95001614 15.0996865 70.34137131 26.74145451 58.72654152 38.37708282 C53.10989515 44.00405383 47.49514187 49.63289005 41.88476562 55.26611328 C36.99632339 60.17445313 32.10440808 65.07929971 27.20824182 69.97993517 C24.61446841 72.57632213 22.02250084 75.17445717 19.43468094 77.77677917 C16.5499135 80.67758219 13.65742207 83.57055995 10.76416016 86.46289062 C9.90173203 87.33250931 9.03930389 88.20212799 8.15074158 89.09809875 C7.36547592 89.88061508 6.58021027 90.66313141 5.77114868 91.46936035 C5.08717829 92.15517433 4.40320789 92.84098831 3.69851112 93.54758453 C2 95 2 95 0 95 C0 63.65 0 32.3 0 0 Z " fill="currentColor" transform="translate(340,7)"/>
<path d="M0 0 C30.36 0 60.72 0 92 0 C92 0.66 92 1.32 92 2 C47.45 2.495 47.45 2.495 2 3 C2 33.36 2 63.72 2 95 C1.34 95 0.68 95 0 95 C0 63.65 0 32.3 0 0 Z " fill="currentColor" transform="translate(340,7)"/>
<path d="M0 0 C0.33 0 0.66 0 1 0 C1.33 30.69 1.66 61.38 2 93 C3.65 91.68 5.3 90.36 7 89 C6.67 90.98 6.34 92.96 6 95 C4.02 95 2.04 95 0 95 C0 63.65 0 32.3 0 0 Z " fill="currentColor" transform="translate(435,199)"/>
<path d="M0 0 C0 4.61785726 -2.87265048 6.80068219 -6 10 C-8.1189314 11.88729195 -10.26502589 13.72250246 -12.4609375 15.51953125 C-12.96882812 16.00808594 -13.47671875 16.49664062 -14 17 C-14 17.66 -14 18.32 -14 19 C-14.99 19 -15.98 19 -17 19 C-17.33 19.99 -17.66 20.98 -18 22 C-18.66 21.34 -19.32 20.68 -20 20 C-13.33333333 13.33333333 -6.66666667 6.66666667 0 0 Z " fill="currentColor" transform="translate(187,23)"/>
<path d="M0 0 C0.33 0.99 0.66 1.98 1 3 C0.278125 3.556875 -0.44375 4.11375 -1.1875 4.6875 C-3.98198272 6.9851858 -6.47475818 9.41162713 -9 12 C-10.66666667 13.66666667 -12.33333333 15.33333333 -14 17 C-14.66 16.67 -15.32 16.34 -16 16 C-10.72 10.72 -5.44 5.44 0 0 Z " fill="currentColor" transform="translate(527,203)"/>
<path d="M0 0 C0.66 0.33 1.32 0.66 2 1 C0.19587357 4.26460973 -0.83394693 5.88929795 -4 8 C-4.66 8.66 -5.32 9.32 -6 10 C-6.99 9.67 -7.98 9.34 -9 9 C-6.03 6.03 -3.06 3.06 0 0 Z " fill="currentColor" transform="translate(458,271)"/>
<path d="M0 0 C0.99 0.33 1.98 0.66 3 1 C2.236875 1.7425 1.47375 2.485 0.6875 3.25 C-1.95355822 5.80014041 -1.95355822 5.80014041 -3.5625 8.25 C-5.27135463 10.33034477 -6.37821395 10.63837434 -9 11 C-9 10.34 -9 9.68 -9 9 C-7.01739574 7.31267723 -5.0167658 5.64633943 -3 4 C-2.67 3.34 -2.34 2.68 -2 2 C-1.34 2 -0.68 2 0 2 C0 1.34 0 0.68 0 0 Z " fill="currentColor" transform="translate(479,250)"/>
<path d="M0 0 C0.66 0 1.32 0 2 0 C0.34908222 4.29238623 -2.73754566 6.8793915 -6 10 C-6.66 9.67 -7.32 9.34 -8 9 C-6.85459775 7.68712379 -5.70866567 6.37470979 -4.5625 5.0625 C-3.92441406 4.33160156 -3.28632813 3.60070312 -2.62890625 2.84765625 C-1.77458541 1.87860647 -0.91348825 0.91348825 0 0 Z " fill="currentColor" transform="translate(468,261)"/>
<path d="M0 0 C0.99 0.66 1.98 1.32 3 2 C2.01 2.33 1.02 2.66 0 3 C-0.69937532 4.31647119 -1.36729133 5.65022151 -2 7 C-2.99 7.495 -2.99 7.495 -4 8 C-4 6.35 -4 4.7 -4 3 C-3.34 3 -2.68 3 -2 3 C-1.34 2.01 -0.68 1.02 0 0 Z " fill="currentColor" transform="translate(500,131)"/>
</svg>
